<svg width="1198" height="292" viewBox="0 0 1198 292" fill="none" xmlns="http://www.w3.org/2000/svg">
<path d="M128.373 50.9V48.9H126.373V50.9H128.373ZM156.203 50.9H158.203V48.9H156.203V50.9ZM156.203 228V230H158.203V228H156.203ZM128.373 228H126.373V230H128.373V228ZM128.373 52.9H156.203V48.9H128.373V52.9ZM154.203 50.9V228H158.203V50.9H154.203ZM156.203 226H128.373V230H156.203V226ZM130.373 228V50.9H126.373V228H130.373ZM182.106 50.9V48.9H180.106V50.9H182.106ZM217.02 50.9L218.958 50.4051L218.573 48.9H217.02V50.9ZM244.091 156.907L242.153 157.402L242.537 158.907H244.091V156.907ZM244.597 156.907V158.907H246.597V156.907H244.597ZM244.597 50.9V48.9H242.597V50.9H244.597ZM269.391 50.9H271.391V48.9H269.391V50.9ZM269.391 228V230H271.391V228H269.391ZM240.802 228L238.865 228.5L239.253 230H240.802V228ZM207.406 98.717L209.342 98.2168L208.955 96.717H207.406V98.717ZM206.9 98.717V96.717H204.9V98.717H206.9ZM206.9 228V230H208.9V228H206.9ZM182.106 228H180.106V230H182.106V228ZM182.106 52.9H217.02V48.9H182.106V52.9ZM215.082 51.3948L242.153 157.402L246.029 156.412L218.958 50.4051L215.082 51.3948ZM244.091 158.907H244.597V154.907H244.091V158.907ZM246.597 156.907V50.9H242.597V156.907H246.597ZM244.597 52.9H269.391V48.9H244.597V52.9ZM267.391 50.9V228H271.391V50.9H267.391ZM269.391 226H240.802V230H269.391V226ZM242.738 227.5L209.342 98.2168L205.469 99.2172L238.865 228.5L242.738 227.5ZM207.406 96.717H206.9V100.717H207.406V96.717ZM204.9 98.717V228H208.9V98.717H204.9ZM206.9 226H182.106V230H206.9V226ZM184.106 228V50.9H180.106V228H184.106ZM295.136 50.9V48.9H293.136V50.9H295.136ZM368.759 50.9H370.759V48.9H368.759V50.9ZM368.759 76.2V78.2H370.759V76.2H368.759ZM322.966 76.2V74.2H320.966V76.2H322.966ZM322.966 125.535H320.966V127.535H322.966V125.535ZM358.892 125.535H360.892V123.535H358.892V125.535ZM358.892 150.835V152.835H360.892V150.835H358.892ZM322.966 150.835V148.835H320.966V150.835H322.966ZM322.966 228V230H324.966V228H322.966ZM295.136 228H293.136V230H295.136V228ZM295.136 52.9H368.759V48.9H295.136V52.9ZM366.759 50.9V76.2H370.759V50.9H366.759ZM368.759 74.2H322.966V78.2H368.759V74.2ZM320.966 76.2V125.535H324.966V76.2H320.966ZM322.966 127.535H358.892V123.535H322.966V127.535ZM356.892 125.535V150.835H360.892V125.535H356.892ZM358.892 148.835H322.966V152.835H358.892V148.835ZM320.966 150.835V228H324.966V150.835H320.966ZM322.966 226H295.136V230H322.966V226ZM297.136 228V50.9H293.136V228H297.136ZM396.019 218.892L397.48 217.526L397.48 217.526L396.019 218.892ZM396.019 60.008L397.48 61.3738L397.48 61.3738L396.019 60.008ZM458.763 60.008L457.302 61.3738L457.302 61.3738L458.763 60.008ZM458.763 218.892L457.302 217.526L457.302 217.526L458.763 218.892ZM427.391 228.53C414.115 228.53 404.254 224.772 397.48 217.526L394.558 220.258C402.29 228.529 413.343 232.53 427.391 232.53V228.53ZM397.48 217.526C390.676 210.248 387.14 199.836 387.14 186.002H383.14C383.14 200.504 386.857 212.019 394.558 220.258L397.48 217.526ZM387.14 186.002V92.898H383.14V186.002H387.14ZM387.14 92.898C387.14 79.0639 390.676 68.6523 397.48 61.3738L394.558 58.6422C386.857 66.881 383.14 78.3961 383.14 92.898H387.14ZM397.48 61.3738C404.254 54.1278 414.115 50.37 427.391 50.37V46.37C413.343 46.37 402.29 50.3709 394.558 58.6422L397.48 61.3738ZM427.391 50.37C440.667 50.37 450.529 54.1278 457.302 61.3738L460.224 58.6422C452.492 50.3709 441.439 46.37 427.391 46.37V50.37ZM457.302 61.3738C464.106 68.6523 467.642 79.0639 467.642 92.898H471.642C471.642 78.3961 467.926 66.881 460.224 58.6422L457.302 61.3738ZM467.642 92.898V186.002H471.642V92.898H467.642ZM467.642 186.002C467.642 199.836 464.106 210.248 457.302 217.526L460.224 220.258C467.926 212.019 471.642 200.504 471.642 186.002H467.642ZM457.302 217.526C450.529 224.772 440.667 228.53 427.391 228.53V232.53C441.439 232.53 452.492 228.529 460.224 220.258L457.302 217.526ZM427.391 207.23C432.618 207.23 436.866 205.63 439.749 202.14C442.572 198.722 443.812 193.817 443.812 187.773H439.812C439.812 193.367 438.649 197.19 436.665 199.592C434.741 201.921 431.779 203.23 427.391 203.23V207.23ZM443.812 187.773V91.127H439.812V187.773H443.812ZM443.812 91.127C443.812 85.0828 442.572 80.1777 439.749 76.7605C436.866 73.2701 432.618 71.67 427.391 71.67V75.67C431.779 75.67 434.741 76.9794 436.665 79.308C438.649 81.7098 439.812 85.5332 439.812 91.127H443.812ZM427.391 71.67C422.165 71.67 417.917 73.2701 415.034 76.7605C412.211 80.1777 410.97 85.0828 410.97 91.127H414.97C414.97 85.5332 416.133 81.7098 418.117 79.308C420.041 76.9794 423.004 75.67 427.391 75.67V71.67ZM410.97 91.127V187.773H414.97V91.127H410.97ZM410.97 187.773C410.97 193.817 412.211 198.722 415.034 202.14C417.917 205.63 422.165 207.23 427.391 207.23V203.23C423.004 203.23 420.041 201.921 418.117 199.592C416.133 197.19 414.97 193.367 414.97 187.773H410.97ZM493.523 50.9V48.9H491.523V50.9H493.523ZM566.134 61.02L564.702 62.4162L564.711 62.4253L564.72 62.4342L566.134 61.02ZM557.785 137.426L557.038 135.571L555.785 136.075V137.426H557.785ZM557.785 137.932H555.785V139.42L557.21 139.848L557.785 137.932ZM571.953 150.329L570.117 151.123L570.126 151.144L570.136 151.164L571.953 150.329ZM576.76 218.892L574.771 219.101L574.772 219.113L576.76 218.892ZM579.29 228V230H582.368L581.118 227.188L579.29 228ZM550.954 228L549.068 228.666L549.539 230H550.954V228ZM544.376 156.907L542.806 158.146L542.826 158.171L542.846 158.195L544.376 156.907ZM521.353 152.1V150.1H519.353V152.1H521.353ZM521.353 228V230H523.353V228H521.353ZM493.523 228H491.523V230H493.523V228ZM543.87 122.499L542.456 121.085L542.435 121.106L542.414 121.128L543.87 122.499ZM544.629 80.501L543.04 81.7159L543.062 81.7446L543.085 81.7724L544.629 80.501ZM521.353 76.2V74.2H519.353V76.2H521.353ZM521.353 126.8H519.353V128.8H521.353V126.8ZM493.523 52.9H534.762V48.9H493.523V52.9ZM534.762 52.9C548.837 52.9 558.658 56.217 564.702 62.4162L567.566 59.6238C560.454 52.3296 549.361 48.9 534.762 48.9V52.9ZM564.72 62.4342C570.774 68.4883 574.001 78.0767 574.001 91.633H578.001C578.001 77.5279 574.65 66.7077 567.548 59.6058L564.72 62.4342ZM574.001 91.633V102.512H578.001V91.633H574.001ZM574.001 102.512C574.001 111.504 572.513 118.662 569.674 124.104C566.858 129.502 562.667 133.304 557.038 135.571L558.532 139.281C565.047 136.657 569.965 132.194 573.22 125.954C576.453 119.758 578.001 111.905 578.001 102.512H574.001ZM555.785 137.426V137.932H559.785V137.426H555.785ZM557.21 139.848C563.415 141.709 567.663 145.446 570.117 151.123L573.789 149.535C570.846 142.731 565.648 138.203 558.36 136.016L557.21 139.848ZM570.136 151.164C572.837 157.042 574.254 165.071 574.254 175.376H578.254C578.254 164.767 576.804 156.097 573.771 149.494L570.136 151.164ZM574.254 175.376V206.495H578.254V175.376H574.254ZM574.254 206.495C574.254 211.59 574.424 215.8 574.771 219.101L578.749 218.683C578.422 215.575 578.254 211.52 578.254 206.495H574.254ZM574.772 219.113C575.134 222.37 576.037 225.605 577.463 228.812L581.118 227.188C579.845 224.323 579.061 221.486 578.748 218.671L574.772 219.113ZM579.29 226H550.954V230H579.29V226ZM552.84 227.334C551.866 224.573 551.229 222.01 550.913 219.64L546.948 220.168C547.306 222.858 548.019 225.692 549.068 228.666L552.84 227.334ZM550.913 219.64C550.595 217.258 550.424 212.827 550.424 206.242H546.424C546.424 212.813 546.591 217.49 546.948 220.168L550.913 219.64ZM550.424 206.242V173.858H546.424V206.242H550.424ZM550.424 173.858C550.424 165.67 549.086 159.395 545.906 155.619L542.846 158.195C545.064 160.829 546.424 165.854 546.424 173.858H550.424ZM545.946 155.668C542.862 151.762 537.637 150.1 530.967 150.1V154.1C537.116 154.1 540.83 155.643 542.806 158.146L545.946 155.668ZM530.967 150.1H521.353V154.1H530.967V150.1ZM519.353 152.1V228H523.353V152.1H519.353ZM521.353 226H493.523V230H521.353V226ZM495.523 228V50.9H491.523V228H495.523ZM531.473 128.8C537.358 128.8 542.116 127.281 545.327 123.87L542.414 121.128C540.227 123.451 536.721 124.8 531.473 124.8V128.8ZM545.284 123.913C548.71 120.487 550.171 115.022 550.171 108.078H546.171C546.171 114.627 544.765 118.776 542.456 121.085L545.284 123.913ZM550.171 108.078V94.416H546.171V108.078H550.171ZM550.171 94.416C550.171 87.8479 548.978 82.6353 546.173 79.2296L543.085 81.7724C545.003 84.1014 546.171 88.1654 546.171 94.416H550.171ZM546.218 79.2861C543.523 75.7616 539.28 74.2 534.003 74.2V78.2C538.509 78.2 541.35 79.5057 543.04 81.7159L546.218 79.2861ZM534.003 74.2H521.353V78.2H534.003V74.2ZM519.353 76.2V126.8H523.353V76.2H519.353ZM521.353 128.8H531.473V124.8H521.353V128.8ZM600.623 50.9V48.9H598.623V50.9H600.623ZM640.344 50.9L642.325 50.6232L642.084 48.9H640.344V50.9ZM658.054 177.653L656.073 177.93L656.314 179.653H658.054V177.653ZM658.56 177.653V179.653H660.3L660.541 177.93L658.56 177.653ZM676.27 50.9V48.9H674.53L674.289 50.6232L676.27 50.9ZM715.991 50.9H717.991V48.9H715.991V50.9ZM715.991 228V230H717.991V228H715.991ZM689.679 228H687.679V230H689.679V228ZM689.679 93.91H691.679V91.91H689.679V93.91ZM689.173 93.91V91.91H687.452L687.196 93.6115L689.173 93.91ZM668.933 228V230H670.654L670.911 228.299L668.933 228ZM645.657 228L643.68 228.299L643.936 230H645.657V228ZM625.417 93.91L627.395 93.6115L627.138 91.91H625.417V93.91ZM624.911 93.91V91.91H622.911V93.91H624.911ZM624.911 228V230H626.911V228H624.911ZM600.623 228H598.623V230H600.623V228ZM600.623 52.9H640.344V48.9H600.623V52.9ZM638.363 51.1767L656.073 177.93L660.035 177.376L642.325 50.6232L638.363 51.1767ZM658.054 179.653H658.56V175.653H658.054V179.653ZM660.541 177.93L678.251 51.1767L674.289 50.6232L656.579 177.376L660.541 177.93ZM676.27 52.9H715.991V48.9H676.27V52.9ZM713.991 50.9V228H717.991V50.9H713.991ZM715.991 226H689.679V230H715.991V226ZM691.679 228V93.91H687.679V228H691.679ZM689.679 91.91H689.173V95.91H689.679V91.91ZM687.196 93.6115L666.956 227.701L670.911 228.299L691.151 94.2085L687.196 93.6115ZM668.933 226H645.657V230H668.933V226ZM647.635 227.701L627.395 93.6115L623.44 94.2085L643.68 228.299L647.635 227.701ZM625.417 91.91H624.911V95.91H625.417V91.91ZM622.911 93.91V228H626.911V93.91H622.911ZM624.911 226H600.623V230H624.911V226ZM602.623 228V50.9H598.623V228H602.623ZM763.324 50.9V48.9H761.623L761.35 50.5785L763.324 50.9ZM801.021 50.9L802.995 50.5785L802.722 48.9H801.021V50.9ZM829.863 228V230H832.215L831.837 227.679L829.863 228ZM802.033 228L800.053 228.285L800.3 230H802.033V228ZM796.973 192.833L798.953 192.548L794.973 192.833H796.973ZM796.973 193.339V195.339H798.973V193.339H796.973ZM765.348 193.339V191.339H763.619L763.369 193.05L765.348 193.339ZM760.288 228V230H762.017L762.267 228.289L760.288 228ZM734.482 228L732.508 227.679L732.13 230H734.482V228ZM793.684 169.304V171.304H795.987L795.664 169.024L793.684 169.304ZM781.287 81.766L783.267 81.4856L783.024 79.766H781.287V81.766ZM780.781 81.766V79.766H779.039L778.8 81.4912L780.781 81.766ZM768.637 169.304L766.656 169.029L766.34 171.304H768.637V169.304ZM763.324 52.9H801.021V48.9H763.324V52.9ZM799.047 51.2215L827.889 228.321L831.837 227.679L802.995 50.5785L799.047 51.2215ZM829.863 226H802.033V230H829.863V226ZM804.013 227.715L798.953 192.548L794.993 193.118L800.053 228.285L804.013 227.715ZM794.973 192.833V193.339H798.973V192.833H794.973ZM796.973 191.339H765.348V195.339H796.973V191.339ZM763.369 193.05L758.309 227.711L762.267 228.289L767.327 193.628L763.369 193.05ZM760.288 226H734.482V230H760.288V226ZM736.456 228.321L765.298 51.2215L761.35 50.5785L732.508 227.679L736.456 228.321ZM795.664 169.024L783.267 81.4856L779.307 82.0464L791.704 169.584L795.664 169.024ZM781.287 79.766H780.781V83.766H781.287V79.766ZM778.8 81.4912L766.656 169.029L770.618 169.579L782.762 82.0408L778.8 81.4912ZM768.637 171.304H793.684V167.304H768.637V171.304ZM858.571 76.2H860.571V74.2H858.571V76.2ZM829.476 76.2H827.476V78.2H829.476V76.2ZM829.476 50.9V48.9H827.476V50.9H829.476ZM915.496 50.9H917.496V48.9H915.496V50.9ZM915.496 76.2V78.2H917.496V76.2H915.496ZM886.401 76.2V74.2H884.401V76.2H886.401ZM886.401 228V230H888.401V228H886.401ZM858.571 228H856.571V230H858.571V228ZM858.571 74.2H829.476V78.2H858.571V74.2ZM831.476 76.2V50.9H827.476V76.2H831.476ZM829.476 52.9H915.496V48.9H829.476V52.9ZM913.496 50.9V76.2H917.496V50.9H913.496ZM915.496 74.2H886.401V78.2H915.496V74.2ZM884.401 76.2V228H888.401V76.2H884.401ZM886.401 226H858.571V230H886.401V226ZM860.571 228V76.2H856.571V228H860.571ZM934.03 50.9V48.9H932.03V50.9H934.03ZM961.86 50.9H963.86V48.9H961.86V50.9ZM961.86 228V230H963.86V228H961.86ZM934.03 228H932.03V230H934.03V228ZM934.03 52.9H961.86V48.9H934.03V52.9ZM959.86 50.9V228H963.86V50.9H959.86ZM961.86 226H934.03V230H961.86V226ZM936.03 228V50.9H932.03V228H936.03ZM996.618 218.892L998.079 217.526L998.079 217.526L996.618 218.892ZM996.618 60.008L998.079 61.3738L998.079 61.3738L996.618 60.008ZM1059.36 60.008L1057.9 61.3738L1057.9 61.3738L1059.36 60.008ZM1059.36 218.892L1057.9 217.526L1057.9 217.526L1059.36 218.892ZM1027.99 228.53C1014.71 228.53 1004.85 224.772 998.079 217.526L995.157 220.258C1002.89 228.529 1013.94 232.53 1027.99 232.53V228.53ZM998.079 217.526C991.275 210.248 987.739 199.836 987.739 186.002H983.739C983.739 200.504 987.455 212.019 995.157 220.258L998.079 217.526ZM987.739 186.002V92.898H983.739V186.002H987.739ZM987.739 92.898C987.739 79.0639 991.275 68.6523 998.079 61.3738L995.157 58.6422C987.455 66.881 983.739 78.3961 983.739 92.898H987.739ZM998.079 61.3738C1004.85 54.1278 1014.71 50.37 1027.99 50.37V46.37C1013.94 46.37 1002.89 50.3709 995.157 58.6422L998.079 61.3738ZM1027.99 50.37C1041.27 50.37 1051.13 54.1278 1057.9 61.3738L1060.82 58.6422C1053.09 50.3709 1042.04 46.37 1027.99 46.37V50.37ZM1057.9 61.3738C1064.7 68.6523 1068.24 79.0639 1068.24 92.898H1072.24C1072.24 78.3961 1068.52 66.881 1060.82 58.6422L1057.9 61.3738ZM1068.24 92.898V186.002H1072.24V92.898H1068.24ZM1068.24 186.002C1068.24 199.836 1064.7 210.248 1057.9 217.526L1060.82 220.258C1068.52 212.019 1072.24 200.504 1072.24 186.002H1068.24ZM1057.9 217.526C1051.13 224.772 1041.27 228.53 1027.99 228.53V232.53C1042.04 232.53 1053.09 228.529 1060.82 220.258L1057.9 217.526ZM1027.99 207.23C1033.22 207.23 1037.46 205.63 1040.35 202.14C1043.17 198.722 1044.41 193.817 1044.41 187.773H1040.41C1040.41 193.367 1039.25 197.19 1037.26 199.592C1035.34 201.921 1032.38 203.23 1027.99 203.23V207.23ZM1044.41 187.773V91.127H1040.41V187.773H1044.41ZM1044.41 91.127C1044.41 85.0828 1043.17 80.1777 1040.35 76.7605C1037.46 73.2701 1033.22 71.67 1027.99 71.67V75.67C1032.38 75.67 1035.34 76.9794 1037.26 79.308C1039.25 81.7098 1040.41 85.5332 1040.41 91.127H1044.41ZM1027.99 71.67C1022.76 71.67 1018.52 73.2701 1015.63 76.7605C1012.81 80.1777 1011.57 85.0828 1011.57 91.127H1015.57C1015.57 85.5332 1016.73 81.7098 1018.72 79.308C1020.64 76.9794 1023.6 75.67 1027.99 75.67V71.67ZM1011.57 91.127V187.773H1015.57V91.127H1011.57ZM1011.57 187.773C1011.57 193.817 1012.81 198.722 1015.63 202.14C1018.52 205.63 1022.76 207.23 1027.99 207.23V203.23C1023.6 203.23 1020.64 201.921 1018.72 199.592C1016.73 197.19 1015.57 193.367 1015.57 187.773H1011.57ZM1094.12 50.9V48.9H1092.12V50.9H1094.12ZM1129.04 50.9L1130.97 50.4051L1130.59 48.9H1129.04V50.9ZM1156.11 156.907L1154.17 157.402L1154.55 158.907H1156.11V156.907ZM1156.61 156.907V158.907H1158.61V156.907H1156.61ZM1156.61 50.9V48.9H1154.61V50.9H1156.61ZM1181.41 50.9H1183.41V48.9H1181.41V50.9ZM1181.41 228V230H1183.41V228H1181.41ZM1152.82 228L1150.88 228.5L1151.27 230H1152.82V228ZM1119.42 98.717L1121.36 98.2168L1120.97 96.717H1119.42V98.717ZM1118.92 98.717V96.717H1116.92V98.717H1118.92ZM1118.92 228V230H1120.92V228H1118.92ZM1094.12 228H1092.12V230H1094.12V228ZM1094.12 52.9H1129.04V48.9H1094.12V52.9ZM1127.1 51.3948L1154.17 157.402L1158.04 156.412L1130.97 50.4051L1127.1 51.3948ZM1156.11 158.907H1156.61V154.907H1156.11V158.907ZM1158.61 156.907V50.9H1154.61V156.907H1158.61ZM1156.61 52.9H1181.41V48.9H1156.61V52.9ZM1179.41 50.9V228H1183.41V50.9H1179.41ZM1181.41 226H1152.82V230H1181.41V226ZM1154.75 227.5L1121.36 98.2168L1117.48 99.2172L1150.88 228.5L1154.75 227.5ZM1119.42 96.717H1118.92V100.717H1119.42V96.717ZM1116.92 98.717V228H1120.92V98.717H1116.92ZM1118.92 226H1094.12V230H1118.92V226ZM1096.12 228V50.9H1092.12V228H1096.12Z" fill="#D6D6D6"/>
<path d="M10.4074 271V193.24H23.7514V238.264L43.7194 193.24H54.7594V271H41.1274V225.208L20.7754 271H10.4074ZM66.8449 271V193.24H83.6449V224.824H96.1249V193.24H113.021V271H96.1249V236.92H83.6449V271H66.8449ZM148.389 273.784V262.168C147.493 262.232 146.533 262.296 145.509 262.36C144.549 262.424 143.589 262.456 142.629 262.456C139.045 262.456 135.813 261.72 132.933 260.248C130.053 258.776 127.749 256.632 126.021 253.816C124.357 250.936 123.525 247.416 123.525 243.256V220.024C123.525 216.248 124.389 212.92 126.117 210.04C127.845 207.16 130.277 204.92 133.413 203.32C136.549 201.656 140.165 200.824 144.261 200.824C144.965 200.824 145.669 200.856 146.373 200.92C147.141 200.92 147.813 200.952 148.389 201.016V188.632H162.117V201.016C162.693 200.952 163.301 200.92 163.941 200.92C164.581 200.856 165.253 200.824 165.957 200.824C170.245 200.824 173.957 201.656 177.093 203.32C180.229 204.92 182.661 207.16 184.389 210.04C186.117 212.92 186.981 216.248 186.981 220.024V243.352C186.981 247.512 186.117 251.032 184.389 253.912C182.725 256.728 180.517 258.872 177.765 260.344C175.013 261.816 171.941 262.552 168.549 262.552C167.461 262.552 166.373 262.52 165.285 262.456C164.261 262.392 163.205 262.328 162.117 262.264V273.784H148.389ZM146.469 251.992C146.789 251.992 147.141 251.992 147.525 251.992C147.909 251.928 148.197 251.864 148.389 251.8V211.096C148.133 211.032 147.781 211 147.333 211C146.949 210.936 146.565 210.904 146.181 210.904C144.581 210.904 143.205 211.256 142.053 211.96C140.901 212.664 140.005 213.688 139.365 215.032C138.725 216.376 138.405 217.976 138.405 219.832V243.544C138.405 245.144 138.661 246.584 139.173 247.864C139.685 249.144 140.517 250.168 141.669 250.936C142.821 251.64 144.421 251.992 146.469 251.992ZM164.133 251.896C166.053 251.896 167.589 251.576 168.741 250.936C169.893 250.232 170.725 249.24 171.237 247.96C171.813 246.68 172.101 245.208 172.101 243.544V219.832C172.101 217.848 171.813 216.184 171.237 214.84C170.661 213.496 169.829 212.504 168.741 211.864C167.717 211.224 166.437 210.904 164.901 210.904C164.389 210.904 163.909 210.936 163.461 211C163.013 211 162.565 211.032 162.117 211.096V251.704C162.437 251.768 162.757 251.832 163.077 251.896C163.461 251.896 163.813 251.896 164.133 251.896ZM219.42 272.152C213.596 272.152 208.988 271.128 205.596 269.08C202.268 267.032 199.868 264.088 198.396 260.248C196.924 256.408 196.188 251.832 196.188 246.52V217.624C196.188 212.248 196.924 207.672 198.396 203.896C199.868 200.12 202.268 197.24 205.596 195.256C208.988 193.208 213.596 192.184 219.42 192.184C225.244 192.184 229.852 193.208 233.244 195.256C236.7 197.24 239.164 200.12 240.636 203.896C242.108 207.672 242.844 212.248 242.844 217.624V246.52C242.844 251.832 242.108 256.408 240.636 260.248C239.164 264.088 236.7 267.032 233.244 269.08C229.852 271.128 225.244 272.152 219.42 272.152ZM219.42 260.152C221.276 260.152 222.62 259.704 223.452 258.808C224.348 257.848 224.924 256.664 225.18 255.256C225.436 253.784 225.564 252.28 225.564 250.744V213.496C225.564 211.896 225.436 210.392 225.18 208.984C224.924 207.576 224.348 206.424 223.452 205.528C222.62 204.568 221.276 204.088 219.42 204.088C217.692 204.088 216.38 204.568 215.484 205.528C214.652 206.424 214.076 207.576 213.756 208.984C213.5 210.392 213.372 211.896 213.372 213.496V250.744C213.372 252.28 213.5 253.784 213.756 255.256C214.012 256.664 214.556 257.848 215.388 258.808C216.22 259.704 217.564 260.152 219.42 260.152ZM253.213 271V193.24H278.941C283.613 193.24 287.453 194.136 290.461 195.928C293.469 197.656 295.709 200.216 297.181 203.608C298.653 206.936 299.389 210.968 299.389 215.704C299.389 221.656 298.397 226.232 296.413 229.432C294.493 232.568 291.837 234.744 288.445 235.96C285.117 237.176 281.341 237.784 277.117 237.784H270.109V271H253.213ZM270.109 226.072H275.773C277.949 226.072 279.581 225.688 280.669 224.92C281.821 224.152 282.589 223 282.973 221.464C283.357 219.864 283.549 217.88 283.549 215.512C283.549 213.4 283.389 211.576 283.069 210.04C282.813 208.504 282.109 207.32 280.957 206.488C279.805 205.592 278.045 205.144 275.677 205.144H270.109V226.072ZM307.3 271L308.644 193.24H326.692L335.524 239.416L344.932 193.24H362.308L363.652 271H351.652L350.308 218.968L340.996 271H330.436L320.644 218.68L319.492 271H307.3ZM371.25 271L386.034 193.24H405.138L419.73 271H404.178L401.586 254.392H389.874L387.186 271H371.25ZM391.41 244.312H399.954L395.634 213.688L391.41 244.312ZM473.188 287.704L470.98 271H427.876V193.24H444.676V259.576H458.212V193.24H475.108V259.576H485.476V287.704H473.188ZM493.407 271V193.24H506.751V238.264L526.719 193.24H537.759V271H524.127V225.208L503.775 271H493.407ZM544.757 271L559.637 236.44C556.693 234.648 554.261 232.024 552.341 228.568C550.421 225.112 549.461 221.048 549.461 216.376C549.461 210.488 550.485 205.88 552.533 202.552C554.645 199.16 557.653 196.76 561.557 195.352C565.525 193.944 570.261 193.24 575.765 193.24H595.541V271H578.741V240.184H575.573C575.509 240.184 575.317 240.184 574.997 240.184C574.741 240.184 574.549 240.184 574.421 240.184L562.997 271H544.757ZM576.149 228.376H578.741V204.856H575.957C572.373 204.856 569.685 205.848 567.893 207.832C566.101 209.752 565.205 212.632 565.205 216.472C565.205 219.928 565.973 222.776 567.509 225.016C569.109 227.256 571.989 228.376 576.149 228.376Z" fill="black"/>
</svg>
