<svg width="25" height="23" viewBox="0 0 25 23" fill="none" xmlns="http://www.w3.org/2000/svg">
<path d="M12.5 2.0709C15.8398 2.0709 16.2354 2.08437 17.5488 2.13828C18.7695 2.1877 19.4287 2.37637 19.8682 2.53359C20.4492 2.74023 20.8691 2.9918 21.3037 3.3916C21.7432 3.7959 22.0117 4.17773 22.2363 4.71231C22.4072 5.1166 22.6123 5.72754 22.666 6.84609C22.7246 8.05898 22.7393 8.42285 22.7393 11.491C22.7393 14.5637 22.7246 14.9275 22.666 16.1359C22.6123 17.259 22.4072 17.8654 22.2363 18.2697C22.0117 18.8043 21.7383 19.1906 21.3037 19.5904C20.8643 19.9947 20.4492 20.2418 19.8682 20.4484C19.4287 20.6057 18.7646 20.7943 17.5488 20.8438C16.2305 20.8977 15.835 20.9111 12.5 20.9111C9.16016 20.9111 8.76465 20.8977 7.45117 20.8438C6.23047 20.7943 5.57129 20.6057 5.13184 20.4484C4.55078 20.2418 4.13086 19.9902 3.69629 19.5904C3.25684 19.1861 2.98828 18.8043 2.76367 18.2697C2.59277 17.8654 2.3877 17.2545 2.33398 16.1359C2.27539 14.923 2.26074 14.5592 2.26074 11.491C2.26074 8.41836 2.27539 8.05449 2.33398 6.84609C2.3877 5.72305 2.59277 5.1166 2.76367 4.71231C2.98828 4.17773 3.26172 3.79141 3.69629 3.3916C4.13574 2.9873 4.55078 2.74023 5.13184 2.53359C5.57129 2.37637 6.23535 2.1877 7.45117 2.13828C8.76465 2.08437 9.16016 2.0709 12.5 2.0709ZM12.5 0C9.10645 0 8.68164 0.0134766 7.34863 0.0673828C6.02051 0.121289 5.10742 0.318945 4.31641 0.601953C3.49121 0.898438 2.79297 1.28926 2.09961 1.93164C1.40137 2.56953 0.976562 3.21191 0.654297 3.9666C0.34668 4.69883 0.131836 5.53437 0.0732422 6.75625C0.0146484 7.98711 0 8.37793 0 11.5C0 14.6221 0.0146484 15.0129 0.0732422 16.2393C0.131836 17.4611 0.34668 18.3012 0.654297 19.0289C0.976562 19.7881 1.40137 20.4305 2.09961 21.0684C2.79297 21.7063 3.49121 22.1016 4.31152 22.3936C5.10742 22.6766 6.01562 22.8742 7.34375 22.9281C8.67676 22.982 9.10156 22.9955 12.4951 22.9955C15.8887 22.9955 16.3135 22.982 17.6465 22.9281C18.9746 22.8742 19.8877 22.6766 20.6787 22.3936C21.499 22.1016 22.1973 21.7063 22.8906 21.0684C23.584 20.4305 24.0137 19.7881 24.3311 19.0334C24.6387 18.3012 24.8535 17.4656 24.9121 16.2438C24.9707 15.0174 24.9854 14.6266 24.9854 11.5045C24.9854 8.38242 24.9707 7.9916 24.9121 6.76523C24.8535 5.54336 24.6387 4.70332 24.3311 3.97559C24.0234 3.21191 23.5986 2.56953 22.9004 1.93164C22.207 1.29375 21.5088 0.898438 20.6885 0.606445C19.8926 0.323437 18.9844 0.125781 17.6562 0.071875C16.3184 0.0134766 15.8936 0 12.5 0Z" fill="white"/>
<path d="M12.5 5.59277C8.95508 5.59277 6.0791 8.23867 6.0791 11.5C6.0791 14.7613 8.95508 17.4072 12.5 17.4072C16.0449 17.4072 18.9209 14.7613 18.9209 11.5C18.9209 8.23867 16.0449 5.59277 12.5 5.59277ZM12.5 15.3318C10.2002 15.3318 8.33496 13.6158 8.33496 11.5C8.33496 9.38418 10.2002 7.66816 12.5 7.66816C14.7998 7.66816 16.665 9.38418 16.665 11.5C16.665 13.6158 14.7998 15.3318 12.5 15.3318Z" fill="white"/>
<path d="M20.6738 5.35957C20.6738 6.12324 20 6.73868 19.1748 6.73868C18.3447 6.73868 17.6758 6.11875 17.6758 5.35957C17.6758 4.5959 18.3496 3.98047 19.1748 3.98047C20 3.98047 20.6738 4.60039 20.6738 5.35957Z" fill="white"/>
</svg>
