<svg width="838" height="342" viewBox="0 0 838 342" fill="none" xmlns="http://www.w3.org/2000/svg">
<path d="M100.375 75.5V73.5H98.375V75.5H100.375ZM208 90.5L206.568 91.8962L206.577 91.9053L206.586 91.9142L208 90.5ZM195.625 203.75L194.878 201.895L193.625 202.399V203.75H195.625ZM195.625 204.5H193.625V205.988L195.05 206.416L195.625 204.5ZM216.625 222.875L214.789 223.669L214.798 223.69L214.808 223.71L216.625 222.875ZM223.75 324.5L221.761 324.709L221.762 324.721L223.75 324.5ZM227.5 338V340H230.578L229.328 337.188L227.5 338ZM185.5 338L183.614 338.666L184.085 340H185.5V338ZM175.75 232.625L174.18 233.864L174.2 233.889L174.22 233.913L175.75 232.625ZM141.625 225.5V223.5H139.625V225.5H141.625ZM141.625 338V340H143.625V338H141.625ZM100.375 338H98.375V340H100.375V338ZM175 181.625L173.586 180.211L173.564 180.232L173.544 180.254L175 181.625ZM176.125 119.375L174.536 120.59L174.558 120.619L174.581 120.646L176.125 119.375ZM141.625 113V111H139.625V113H141.625ZM141.625 188H139.625V190H141.625V188ZM100.375 77.5H161.5V73.5H100.375V77.5ZM161.5 77.5C182.488 77.5 197.352 82.4437 206.568 91.8962L209.432 89.1038C199.148 78.5563 183.012 73.5 161.5 73.5V77.5ZM206.586 91.9142C215.812 101.14 220.625 115.649 220.625 135.875H224.625C224.625 115.101 219.688 99.3597 209.414 89.0858L206.586 91.9142ZM220.625 135.875V152H224.625V135.875H220.625ZM220.625 152C220.625 165.424 218.405 176.202 214.102 184.45C209.822 192.654 203.435 198.448 194.878 201.895L196.372 205.605C205.815 201.802 212.928 195.346 217.648 186.3C222.345 177.298 224.625 165.826 224.625 152H220.625ZM193.625 203.75V204.5H197.625V203.75H193.625ZM195.05 206.416C204.508 209.253 211.033 214.982 214.789 223.669L218.461 222.081C214.217 212.267 206.742 205.747 196.2 202.584L195.05 206.416ZM214.808 223.71C218.891 232.597 221 244.652 221 260H225C225 244.348 222.859 231.653 218.442 222.04L214.808 223.71ZM221 260V306.125H225V260H221ZM221 306.125C221 313.66 221.251 319.862 221.761 324.709L225.739 324.291C225.249 319.638 225 313.59 225 306.125H221ZM221.762 324.721C222.287 329.442 223.596 334.141 225.672 338.812L229.328 337.188C227.404 332.859 226.213 328.558 225.738 324.279L221.762 324.721ZM227.5 336H185.5V340H227.5V336ZM187.386 337.334C185.923 333.191 184.961 329.326 184.482 325.736L180.518 326.264C181.039 330.174 182.077 334.309 183.614 338.666L187.386 337.334ZM184.482 325.736C184.002 322.134 183.75 315.507 183.75 305.75H179.75C179.75 315.493 179.998 322.366 180.518 326.264L184.482 325.736ZM183.75 305.75V257.75H179.75V305.75H183.75ZM183.75 257.75C183.75 245.658 181.761 236.658 177.28 231.337L174.22 233.913C177.739 238.092 179.75 245.842 179.75 257.75H183.75ZM177.32 231.386C173.016 225.934 165.636 223.5 155.875 223.5V227.5C165.114 227.5 170.984 229.816 174.18 233.864L177.32 231.386ZM155.875 223.5H141.625V227.5H155.875V223.5ZM139.625 225.5V338H143.625V225.5H139.625ZM141.625 336H100.375V340H141.625V336ZM102.375 338V75.5H98.375V338H102.375ZM156.625 190C165.194 190 171.944 187.79 176.456 182.996L173.544 180.254C170.056 183.96 164.556 186 156.625 186V190ZM176.414 183.039C181.223 178.231 183.375 170.447 183.375 160.25H179.375C179.375 170.053 177.277 176.519 173.586 180.211L176.414 183.039ZM183.375 160.25V140H179.375V160.25H183.375ZM183.375 140C183.375 130.341 181.612 122.892 177.669 118.104L174.581 120.646C177.638 124.358 179.375 130.659 179.375 140H183.375ZM177.714 118.16C173.961 113.253 168.01 111 160.375 111V115C167.24 115 171.789 116.997 174.536 120.59L177.714 118.16ZM160.375 111H141.625V115H160.375V111ZM139.625 113V188H143.625V113H139.625ZM141.625 190H156.625V186H141.625V190ZM272.245 324.5L273.706 323.134L273.706 323.134L272.245 324.5ZM272.245 89L273.706 90.3658L273.706 90.3658L272.245 89ZM365.245 89L363.784 90.3658L363.784 90.3658L365.245 89ZM365.245 324.5L363.784 323.134L363.784 323.134L365.245 324.5ZM318.745 339.75C298.881 339.75 283.977 334.122 273.706 323.134L270.784 325.866C282.013 337.878 298.109 343.75 318.745 343.75V339.75ZM273.706 323.134C263.405 312.114 258.12 296.416 258.12 275.75H254.12C254.12 297.084 259.585 313.886 270.784 325.866L273.706 323.134ZM258.12 275.75V137.75H254.12V275.75H258.12ZM258.12 137.75C258.12 117.084 263.405 101.386 273.706 90.3658L270.784 87.6342C259.585 99.6143 254.12 116.416 254.12 137.75H258.12ZM273.706 90.3658C283.977 79.3784 298.881 73.75 318.745 73.75V69.75C298.109 69.75 282.013 75.6216 270.784 87.6342L273.706 90.3658ZM318.745 73.75C338.609 73.75 353.513 79.3784 363.784 90.3658L366.706 87.6342C355.477 75.6216 339.381 69.75 318.745 69.75V73.75ZM363.784 90.3658C374.085 101.386 379.37 117.084 379.37 137.75H383.37C383.37 116.416 377.905 99.6143 366.706 87.6342L363.784 90.3658ZM379.37 137.75V275.75H383.37V137.75H379.37ZM379.37 275.75C379.37 296.416 374.085 312.114 363.784 323.134L366.706 325.866C377.905 313.886 383.37 297.084 383.37 275.75H379.37ZM363.784 323.134C353.513 334.122 338.609 339.75 318.745 339.75V343.75C339.381 343.75 355.477 337.878 366.706 325.866L363.784 323.134ZM318.745 306.25C326.29 306.25 332.276 303.948 336.318 299.055C340.3 294.235 342.12 287.225 342.12 278.375H338.12C338.12 286.775 336.378 292.703 333.234 296.507C330.152 300.239 325.45 302.25 318.745 302.25V306.25ZM342.12 278.375V135.125H338.12V278.375H342.12ZM342.12 135.125C342.12 126.275 340.3 119.265 336.318 114.445C332.276 109.552 326.29 107.25 318.745 107.25V111.25C325.45 111.25 330.152 113.261 333.234 116.993C336.378 120.797 338.12 126.725 338.12 135.125H342.12ZM318.745 107.25C311.2 107.25 305.214 109.552 301.172 114.445C297.19 119.265 295.37 126.275 295.37 135.125H299.37C299.37 126.725 301.113 120.797 304.256 116.993C307.338 113.261 312.04 111.25 318.745 111.25V107.25ZM295.37 135.125V278.375H299.37V135.125H295.37ZM295.37 278.375C295.37 287.225 297.19 294.235 301.172 299.055C305.214 303.948 311.2 306.25 318.745 306.25V302.25C312.04 302.25 307.338 300.239 304.256 296.507C301.113 292.703 299.37 286.775 299.37 278.375H295.37ZM416.767 75.5V73.5H414.767V75.5H416.767ZM458.017 75.5H460.017V73.5H458.017V75.5ZM458.017 300.5H456.017V302.5H458.017V300.5ZM525.892 300.5H527.892V298.5H525.892V300.5ZM525.892 338V340H527.892V338H525.892ZM416.767 338H414.767V340H416.767V338ZM416.767 77.5H458.017V73.5H416.767V77.5ZM456.017 75.5V300.5H460.017V75.5H456.017ZM458.017 302.5H525.892V298.5H458.017V302.5ZM523.892 300.5V338H527.892V300.5H523.892ZM525.892 336H416.767V340H525.892V336ZM418.767 338V75.5H414.767V338H418.767ZM553.173 75.5V73.5H551.173V75.5H553.173ZM665.673 75.5H667.673V73.5H665.673V75.5ZM665.673 113V115H667.673V113H665.673ZM594.423 113V111H592.423V113H594.423ZM594.423 182.375H592.423V184.375H594.423V182.375ZM651.048 182.375H653.048V180.375H651.048V182.375ZM651.048 219.875V221.875H653.048V219.875H651.048ZM594.423 219.875V217.875H592.423V219.875H594.423ZM594.423 300.5H592.423V302.5H594.423V300.5ZM665.673 300.5H667.673V298.5H665.673V300.5ZM665.673 338V340H667.673V338H665.673ZM553.173 338H551.173V340H553.173V338ZM553.173 77.5H665.673V73.5H553.173V77.5ZM663.673 75.5V113H667.673V75.5H663.673ZM665.673 111H594.423V115H665.673V111ZM592.423 113V182.375H596.423V113H592.423ZM594.423 184.375H651.048V180.375H594.423V184.375ZM649.048 182.375V219.875H653.048V182.375H649.048ZM651.048 217.875H594.423V221.875H651.048V217.875ZM592.423 219.875V300.5H596.423V219.875H592.423ZM594.423 302.5H665.673V298.5H594.423V302.5ZM663.673 300.5V338H667.673V300.5H663.673ZM665.673 336H553.173V340H665.673V336ZM555.173 338V75.5H551.173V338H555.173ZM705.886 324.875L704.393 326.206L704.4 326.214L704.407 326.222L705.886 324.875ZM690.511 260.75V258.75H688.511V260.75H690.511ZM729.511 260.75H731.511V258.75H729.511V260.75ZM766.636 298.25L765.136 296.927L765.131 296.933L766.636 298.25ZM764.761 249.125L763.037 250.139L763.044 250.15L763.05 250.162L764.761 249.125ZM737.011 218.75L735.687 220.25L735.698 220.259L737.011 218.75ZM701.386 178.25L699.634 179.215L699.638 179.223L699.643 179.231L701.386 178.25ZM707.011 89L708.473 90.3646L708.48 90.3566L708.488 90.3485L707.011 89ZM797.386 89L795.877 90.3123L795.892 90.3298L795.907 90.347L797.386 89ZM812.761 148.625V150.625H814.761V148.625H812.761ZM773.761 148.625H771.761V150.625H773.761V148.625ZM768.511 115.625L766.967 116.896L766.986 116.919L767.006 116.942L768.511 115.625ZM740.011 161L738.3 162.037L738.312 162.055L738.323 162.074L740.011 161ZM768.136 191L766.823 192.509L766.823 192.509L768.136 191ZM803.761 231.875L801.994 232.812L801.994 232.812L803.761 231.875ZM797.386 324.5L795.925 323.134L795.917 323.143L795.909 323.151L797.386 324.5ZM751.261 339.75C731.637 339.75 717.126 334.242 707.364 323.528L704.407 326.222C715.146 338.008 730.884 343.75 751.261 343.75V339.75ZM707.379 323.544C697.561 312.53 692.511 296.696 692.511 275.75H688.511C688.511 297.304 693.71 314.22 704.393 326.206L707.379 323.544ZM692.511 275.75V260.75H688.511V275.75H692.511ZM690.511 262.75H729.511V258.75H690.511V262.75ZM727.511 260.75V278.75H731.511V260.75H727.511ZM727.511 278.75C727.511 287.481 729.333 294.401 733.322 299.16C737.367 303.986 743.351 306.25 750.886 306.25V302.25C744.171 302.25 739.467 300.264 736.387 296.59C733.251 292.849 731.511 287.019 731.511 278.75H727.511ZM750.886 306.25C758.269 306.25 764.15 304.128 768.141 299.567L765.131 296.933C762.122 300.372 757.503 302.25 750.886 302.25V306.25ZM768.135 299.573C772.358 294.788 774.261 287.449 774.261 278H770.261C770.261 287.051 768.414 293.212 765.136 296.927L768.135 299.573ZM774.261 278C774.261 266.687 771.686 256.693 766.471 248.088L763.05 250.162C767.835 258.057 770.261 267.313 770.261 278H774.261ZM766.485 248.111C761.32 239.331 751.877 229.037 738.324 217.241L735.698 220.259C749.145 231.963 758.201 241.919 763.037 250.139L766.485 248.111ZM738.334 217.25C721.408 202.316 709.721 188.989 703.129 177.269L699.643 179.231C706.551 191.511 718.613 205.184 735.688 220.25L738.334 217.25ZM703.137 177.285C696.565 165.357 693.261 151.944 693.261 137H689.261C689.261 152.556 692.707 166.643 699.634 179.215L703.137 177.285ZM693.261 137C693.261 116.577 698.424 101.131 708.473 90.3646L705.549 87.6354C694.597 99.369 689.261 115.923 689.261 137H693.261ZM708.488 90.3485C718.508 79.3742 733.153 73.75 752.761 73.75V69.75C732.368 69.75 716.514 75.6258 705.534 87.6514L708.488 90.3485ZM752.761 73.75C772.115 73.75 786.362 79.3705 795.877 90.3123L798.895 87.6876C788.41 75.6295 772.907 69.75 752.761 69.75V73.75ZM795.907 90.347C805.709 101.105 810.761 116.8 810.761 137.75H814.761C814.761 116.2 809.563 99.3953 798.864 87.653L795.907 90.347ZM810.761 137.75V148.625H814.761V137.75H810.761ZM812.761 146.625H773.761V150.625H812.761V146.625ZM775.761 148.625V135.125H771.761V148.625H775.761ZM775.761 135.125C775.761 125.95 773.992 118.852 770.016 114.308L767.006 116.942C770.029 120.398 771.761 126.3 771.761 135.125H775.761ZM770.055 114.354C766.09 109.539 760.335 107.25 753.136 107.25V111.25C759.436 111.25 763.932 113.211 766.967 116.896L770.055 114.354ZM753.136 107.25C745.837 107.25 740.037 109.492 736.121 114.262C732.267 118.957 730.511 125.777 730.511 134.375H734.511C734.511 126.223 736.192 120.48 739.213 116.8C742.172 113.196 746.685 111.25 753.136 111.25V107.25ZM730.511 134.375C730.511 144.246 733.114 153.479 738.3 162.037L741.721 159.963C736.907 152.021 734.511 143.504 734.511 134.375H730.511ZM738.323 162.074C743.729 170.568 753.277 180.719 766.823 192.509L769.449 189.491C755.995 177.781 746.792 167.932 741.698 159.926L738.323 162.074ZM766.823 192.509C783.992 207.439 795.66 220.875 801.994 232.812L805.527 230.938C798.862 218.375 786.779 204.561 769.448 189.491L766.823 192.509ZM801.994 232.812C808.314 244.724 811.511 258.765 811.511 275H815.511C815.511 258.235 812.207 243.526 805.527 230.938L801.994 232.812ZM811.511 275C811.511 296.181 806.218 312.122 795.925 323.134L798.847 325.866C810.053 313.878 815.511 296.819 815.511 275H811.511ZM795.909 323.151C785.893 334.121 771.127 339.75 751.261 339.75V343.75C771.894 343.75 787.878 337.879 798.863 325.849L795.909 323.151Z" fill="#D6D6D6"/>
<path d="M13.1917 174V97.05H38.6517C43.275 97.05 47.075 97.9367 50.0517 99.71C53.0284 101.42 55.245 103.953 56.7017 107.31C58.1584 110.603 58.8867 114.593 58.8867 119.28C58.8867 125.17 57.905 129.698 55.9417 132.865C54.0417 135.968 51.4134 138.122 48.0567 139.325C44.7634 140.528 41.0267 141.13 36.8467 141.13H29.9117V174H13.1917ZM29.9117 129.54H35.5167C37.67 129.54 39.285 129.16 40.3617 128.4C41.5017 127.64 42.2617 126.5 42.6417 124.98C43.0217 123.397 43.2117 121.433 43.2117 119.09C43.2117 117 43.0534 115.195 42.7367 113.675C42.4834 112.155 41.7867 110.983 40.6467 110.16C39.5067 109.273 37.765 108.83 35.4217 108.83H29.9117V129.54ZM88.9453 175.14C83.182 175.14 78.622 174.127 75.2653 172.1C71.972 170.073 69.597 167.16 68.1403 163.36C66.6836 159.56 65.9553 155.032 65.9553 149.775V121.18C65.9553 115.86 66.6836 111.332 68.1403 107.595C69.597 103.858 71.972 101.008 75.2653 99.045C78.622 97.0183 83.182 96.005 88.9453 96.005C94.7086 96.005 99.2686 97.0183 102.625 99.045C106.045 101.008 108.484 103.858 109.94 107.595C111.397 111.332 112.125 115.86 112.125 121.18V149.775C112.125 155.032 111.397 159.56 109.94 163.36C108.484 167.16 106.045 170.073 102.625 172.1C99.2686 174.127 94.7086 175.14 88.9453 175.14ZM88.9453 163.265C90.782 163.265 92.112 162.822 92.9353 161.935C93.822 160.985 94.392 159.813 94.6453 158.42C94.8986 156.963 95.0253 155.475 95.0253 153.955V117.095C95.0253 115.512 94.8986 114.023 94.6453 112.63C94.392 111.237 93.822 110.097 92.9353 109.21C92.112 108.26 90.782 107.785 88.9453 107.785C87.2353 107.785 85.937 108.26 85.0503 109.21C84.227 110.097 83.657 111.237 83.3403 112.63C83.087 114.023 82.9603 115.512 82.9603 117.095V153.955C82.9603 155.475 83.087 156.963 83.3403 158.42C83.5936 159.813 84.132 160.985 84.9553 161.935C85.7786 162.822 87.1086 163.265 88.9453 163.265ZM117.351 174V162.22C119.441 162.22 121.151 162.093 122.481 161.84C123.811 161.523 124.856 160.858 125.616 159.845C126.376 158.768 126.978 157.122 127.421 154.905C127.928 152.688 128.308 149.712 128.561 145.975C128.878 142.238 129.258 137.52 129.701 131.82L132.171 97.05H172.546V174H155.921V109.78H147.181L145.661 134.86C145.218 141.13 144.774 146.545 144.331 151.105C143.888 155.665 143.159 159.497 142.146 162.6C141.196 165.64 139.771 168.047 137.871 169.82C135.971 171.593 133.343 172.797 129.986 173.43C126.693 174.063 122.481 174.253 117.351 174ZM184.644 174V97.05H197.849V141.605L217.609 97.05H228.534V174H215.044V128.685L194.904 174H184.644Z" fill="black"/>
</svg>
