<svg width="24" height="24" viewBox="0 0 24 24" fill="none" xmlns="http://www.w3.org/2000/svg">
<g clip-path="url(#clip0_791_121)">
<path d="M23.4561 4.443C23.0791 4.61021 22.6914 4.75135 22.2953 4.86595C22.7643 4.33561 23.1218 3.71162 23.34 3.02879C23.389 2.87574 23.3382 2.70821 23.2124 2.60809C23.0868 2.50792 22.9122 2.49592 22.7739 2.5779C21.9327 3.07679 21.0252 3.43534 20.0736 3.64496C19.1151 2.70835 17.8132 2.17529 16.4674 2.17529C13.6265 2.17529 11.3152 4.4865 11.3152 7.3273C11.3152 7.55104 11.3294 7.77355 11.3574 7.99297C7.83215 7.68346 4.55475 5.95073 2.3042 3.19004C2.224 3.09165 2.10043 3.03859 1.97392 3.04876C1.84736 3.05865 1.73359 3.13004 1.66965 3.23977C1.21319 4.023 0.971876 4.91883 0.971876 5.83031C0.971876 7.07174 1.41508 8.24957 2.19803 9.16995C1.95995 9.0875 1.72895 8.98447 1.50845 8.86208C1.39009 8.79617 1.24562 8.7972 1.12802 8.86461C1.01036 8.93206 0.936579 9.05605 0.933438 9.19161C0.932876 9.21444 0.932876 9.23727 0.932876 9.26042C0.932876 11.1134 1.93018 12.7818 3.45498 13.691C3.32396 13.678 3.19309 13.659 3.06301 13.6341C2.9289 13.6085 2.79104 13.6555 2.70062 13.7578C2.61006 13.86 2.58006 14.0024 2.62182 14.1325C3.1862 15.8946 4.63927 17.1906 6.3959 17.5858C4.93894 18.4983 3.27282 18.9763 1.52378 18.9763C1.15881 18.9763 0.791783 18.9549 0.432581 18.9124C0.254129 18.8911 0.0835043 18.9965 0.0227076 19.1662C-0.038089 19.336 0.0263639 19.5253 0.178145 19.6226C2.42509 21.0633 5.02317 21.8248 7.69143 21.8248C12.9369 21.8248 16.2183 19.3513 18.0473 17.2762C20.3281 14.6888 21.6361 11.264 21.6361 7.8801C21.6361 7.73872 21.634 7.59599 21.6296 7.45368C22.5295 6.77573 23.3042 5.95523 23.9346 5.0122C24.0303 4.869 24.02 4.67967 23.909 4.54786C23.7984 4.41582 23.6137 4.37316 23.4561 4.443Z" fill="#f0f0f0"/>
</g>
<defs>
<clipPath id="clip0_791_121">
<rect width="24" height="24" fill="white"/>
</clipPath>
</defs>
</svg>
