<svg width="27" height="19" viewBox="0 0 27 19" fill="none" xmlns="http://www.w3.org/2000/svg">
<path d="M22.8566 1.575C21.1358 0.845999 19.2904 0.308906 17.3609 0.00129041C17.3257 -0.00464648 17.2906 0.0101901 17.2725 0.039864C17.0352 0.429575 16.7723 0.937984 16.5882 1.33759C14.513 1.05075 12.4483 1.05075 10.4156 1.33759C10.2315 0.929101 9.95905 0.429575 9.72065 0.039864C9.70255 0.0111802 9.66744 -0.00365641 9.63231 0.00129041C7.7039 0.307923 5.85851 0.845016 4.13655 1.575C4.12164 1.58093 4.10887 1.59083 4.10039 1.60368C0.600066 6.43162 -0.358819 11.1409 0.111578 15.7918C0.113706 15.8145 0.127541 15.8363 0.146698 15.8501C2.45611 17.4159 4.69317 18.3665 6.88869 18.9965C6.92383 19.0064 6.96106 18.9946 6.98342 18.9679C7.50277 18.3131 7.96572 17.6227 8.36266 16.8966C8.38609 16.8541 8.36372 16.8036 8.31585 16.7868C7.58152 16.5297 6.8823 16.2161 6.2097 15.86C6.15649 15.8313 6.15224 15.7611 6.20118 15.7275C6.34272 15.6295 6.4843 15.5277 6.61945 15.4248C6.6439 15.406 6.67797 15.402 6.70672 15.4139C11.1254 17.2765 15.9092 17.2765 20.2758 15.4139C20.3046 15.4011 20.3386 15.405 20.3642 15.4238C20.4994 15.5267 20.6409 15.6295 20.7835 15.7275C20.8324 15.7611 20.8292 15.8313 20.776 15.86C20.1034 16.223 19.4042 16.5297 18.6688 16.7858C18.6209 16.8027 18.5997 16.8541 18.6231 16.8966C19.0285 17.6216 19.4915 18.3121 20.0013 18.9669C20.0226 18.9946 20.0608 19.0064 20.096 18.9965C22.3022 18.3665 24.5392 17.4159 26.8486 15.8501C26.8688 15.8363 26.8816 15.8155 26.8837 15.7928C27.4467 10.4158 25.9408 5.74517 22.8917 1.60466C22.8843 1.59083 22.8715 1.58093 22.8566 1.575ZM9.02253 12.9599C7.69219 12.9599 6.59602 11.8323 6.59602 10.4475C6.59602 9.0627 7.67093 7.93511 9.02253 7.93511C10.3847 7.93511 11.4703 9.0726 11.449 10.4475C11.449 11.8323 10.3741 12.9599 9.02253 12.9599ZM17.9941 12.9599C16.6638 12.9599 15.5676 11.8323 15.5676 10.4475C15.5676 9.0627 16.6425 7.93511 17.9941 7.93511C19.3563 7.93511 20.4419 9.0726 20.4206 10.4475C20.4206 11.8323 19.3563 12.9599 17.9941 12.9599Z" fill="white"/>
</svg>
