<svg width="35" height="31" viewBox="0 0 35 31" fill="none" xmlns="http://www.w3.org/2000/svg">
<path d="M29.751 10.6681C29.751 10.6681 29.5068 9.00167 28.7549 8.26993C27.8027 7.30686 26.7383 7.30214 26.25 7.24549C22.7539 7 17.5049 7 17.5049 7H17.4951C17.4951 7 12.2461 7 8.75 7.24549C8.26172 7.30214 7.19727 7.30686 6.24512 8.26993C5.49316 9.00167 5.25391 10.6681 5.25391 10.6681C5.25391 10.6681 5 12.6273 5 14.5818V16.4135C5 18.368 5.24902 20.3271 5.24902 20.3271C5.24902 20.3271 5.49316 21.9936 6.24023 22.7254C7.19238 23.6884 8.44238 23.6554 8.99902 23.7592C11.001 23.9433 17.5 24 17.5 24C17.5 24 22.7539 23.9906 26.25 23.7498C26.7383 23.6931 27.8027 23.6884 28.7549 22.7254C29.5068 21.9936 29.751 20.3271 29.751 20.3271C29.751 20.3271 30 18.3727 30 16.4135V14.5818C30 12.6273 29.751 10.6681 29.751 10.6681ZM14.917 18.637V11.8437L21.6699 15.2522L14.917 18.637Z" fill="white"/>
</svg>
